# xmcd
#
# Track frame offsets:
#	182
#	19107
#	34865
#	49215
#	63020
#	75677
#	91545
#	107742
#	125292
#	135030
#	155900
#	169325
#	184010
#	199435
#
# Disc length: 2870 seconds
#
# Revision: 0
# Processed by: cddbd v1.4PL0 Copyright (c) Steve Scherf et al.
# Submitted via: dBpowerAMP V4.0
#
DISCID=b10b340e
DTITLE=Hideaway - Rockin' and Bluesin'
DYEAR=1900
DGENRE=
TTITLE0=Mean Machine
TTITLE1=(I Could Love You If You Wouldn't Bite Your) Fingernails
TTITLE2=Sweet Baby
TTITLE3=Nothing You Can Say
TTITLE4=Red Dress
TTITLE5=Bo's Stew
TTITLE6=Blue Parade
TTITLE7=My Blues
TTITLE8=Week-end Of
TTITLE9=I'm Alone
TTITLE10=Bud's Blues
TTITLE11=Driving Down The Highway
TTITLE12=Tv Maniac
TTITLE13=Hideaway
EXTD=Belgian Blues
EXTT0=
EXTT1=
EXTT2=
EXTT3=
EXTT4=
EXTT5=
EXTT6=
EXTT7=
EXTT8=
EXTT9=
EXTT10=
EXTT11=
EXTT12=
EXTT13=
PLAYORDER=
